<svg width="172" height="258" viewBox="0 0 172 258" fill="none" xmlns="http://www.w3.org/2000/svg">
<path d="M108.246 241.808C120.163 239.765 132.534 239.456 145.234 239.86C149.209 239.959 146.205 239.189 144.233 238.241C136.646 234.675 131.477 228.68 131.486 220.691C130.831 207.39 127.981 169.674 140.193 162.282C173.955 147.145 168.178 107.238 160.681 76.8688C159.697 74.431 157.519 73.3109 154.939 73.3603C139.346 73.2739 119.765 74.0357 103.758 70.6013C120.112 69.7695 143.565 70.0866 160.416 70.5313C162.988 71.0378 164.173 73.5168 164.964 75.8517C174.194 111.871 180.42 147.145 142.983 167.249C140.21 169.061 138.888 171.465 138.623 174.496C137.108 191.301 134.84 209.902 137.964 225.847C139.59 229.717 142.513 233.061 146.496 234.601C149.213 235.701 152.825 236.166 155.148 237.57C158.469 239.6 157.579 242.722 153.685 243.018C140.313 243.224 110.694 242.878 102.247 242.503C103.788 242.211 106.312 242.075 108.246 241.812V241.808Z" fill="white"/>
<path d="M20.5717 0.0123532C22.3775 0.267664 24.7095 2.14544 25.0005 3.91614C26.066 10.3854 24.1533 19.3336 25.0005 25.9799C25.0647 26.474 24.9748 26.8158 25.4412 27.1906C26.036 27.6682 33.2119 29.2495 34.8722 29.8672C35.2188 29.9949 35.253 30.5878 35.728 30.7731C41.8683 33.1657 47.9146 35.5499 53.6099 38.8566L69.0315 23.328C70.5634 22.0391 72.69 21.6685 74.6541 22.2573C76.6182 22.8462 82.2151 29.5748 83.9481 31.2796C90.1184 37.3371 99.2926 45.0952 104.53 51.4904C109.327 57.3501 104.569 59.0714 101.321 63.4323C98.7278 66.5496 93.1394 70.2845 90.9143 73.2947C90.6148 73.7024 89.5621 75.296 89.6477 75.6213C95.0564 84.1536 98.501 93.6207 101.325 103.195L124.787 103.467C127.855 104.686 128.296 106.749 128.501 109.693C129.25 120.437 129.357 137.864 128.501 148.541C128.27 151.403 127.517 153.545 124.432 154.426L101.321 154.628C98.4924 164.193 95.0692 173.685 89.6691 182.193C89.5579 182.605 91.0384 184.61 91.4235 185.059C94.7868 188.979 99.3268 192.405 102.793 196.354C105.001 198.874 107.906 200.303 105.959 204.446C97.4826 213.011 89.1856 221.807 80.5805 230.249C76.9647 233.794 73.8454 238.452 68.4838 234.12C66.785 232.748 65.129 230.208 63.7597 228.849C60.4178 225.53 56.7422 222.524 53.6099 219.028C46.2372 223.421 38.4366 225.925 30.4434 228.845C30.1653 228.948 30.131 229.454 29.7759 229.586C28.0172 230.237 25.2701 229.784 25.0005 231.851C24.1362 238.481 26.066 247.437 25.0005 253.91C24.7395 255.5 22.2277 257.814 20.5717 257.814H0.00683594V252.502H19.9384V226.555C23.3445 225.324 27.1956 224.628 30.76 223.5C33.2633 222.705 36.0403 221.708 38.458 220.699C43.9437 218.414 48.6891 215.083 54.0849 212.464L72.5189 230.652L73.3789 230.245L101.347 202.041C99.2712 199.377 83.1864 185.014 83.1351 183.247C83.118 182.58 87.4226 176.024 88.1458 174.608C91.2138 168.604 93.7641 161.71 95.6255 155.258C96.2117 153.223 96.4257 150.864 97.32 149.13H122.973V108.68H97.32C96.4043 108.021 96.7594 106.814 96.4941 105.801C93.5545 94.6378 89.2883 83.8736 82.7371 74.213L101.342 55.7689L72.7285 26.9723L54.0806 45.3464C43.8709 39.0502 32.8225 33.8863 20.6616 31.782L19.9384 31.2549V5.51389C19.9384 5.36976 19.3223 4.82619 18.9799 4.97855L0.00683594 5.31211V0H20.576L20.5717 0.0123532Z" fill="white"/>
<path d="M31.9428 74.6454C57.1846 90.0917 68.4042 118.234 60.518 146.375C53.265 172.26 28.4212 192.718 0 192.051V187.143C5.06634 186.998 10.9585 186.611 15.781 185.063C69.3284 167.871 72.1654 94.329 19.5978 74.003C13.7142 71.7299 6.31581 70.8158 0 70.7005V65.7919C10.2782 65.5819 22.0026 68.345 30.8516 73.4677C31.5106 73.8507 31.6946 74.4931 31.9428 74.6454Z" fill="white"/>
<path d="M0.00428318 173.252C9.7433 173.516 20.9029 169.699 28.1986 163.443C56.5128 139.152 45.6228 94.9462 9.86738 85.022C7.0304 84.2355 2.95679 84.1984 0 84.182V78.8657C8.03597 79.2775 16.8892 80.97 23.8555 85.0097C48.2971 99.1712 56.7396 129.969 42.7473 154.174C34.3647 168.677 17.3984 178.939 0.00428318 178.972V173.252Z" fill="white"/>
<path d="M27.6985 72.3227C28.5586 71.4126 43.8133 80.9456 52.9276 94.7735C57.5617 101.803 59.0765 107.613 61.2973 116.125C61.5284 117.018 61.8493 118.316 61.5497 118.443C60.634 118.83 55.542 107.49 48.6186 96.9684C37.6815 80.3567 26.9668 73.0969 27.6985 72.3227Z" fill="white"/>
<path d="M24.7203 248.19V227.51L21.8662 228.972V248.19H24.7203Z" fill="white"/>
<path d="M23.3857 230.257C22.8979 229.005 52.9965 216.261 53.6255 217.446C53.9507 218.06 46.5223 222.561 39.6802 225.505C32.3759 228.647 23.6425 230.916 23.3857 230.257Z" fill="white"/>
<path d="M96.5433 107.753C96.1496 107.844 94.5706 100.143 89.9493 89.0866C85.9485 79.5083 82.5937 74.4268 82.8804 74.2704C83.2398 74.0768 89.3331 81.905 93.2484 92.7433C96.0811 100.6 96.9155 107.662 96.5433 107.749V107.753Z" fill="white"/>
<path d="M88.998 75.1477C94.6506 69.6215 100.299 64.0911 105.951 58.5649C106.251 58.0584 106.636 57.2266 106.675 56.1847C106.743 54.2946 105.626 52.9274 104.689 51.8156C103.016 49.8267 99.9609 47.4342 99.0794 48.0642C98.4076 48.5419 98.8098 50.9138 103.358 59.0467C98.7328 63.5928 94.1029 68.1349 89.4773 72.6811L88.998 75.1518V75.1477Z" fill="white"/>
<path d="M75.1263 22.8953C84.4203 31.6458 94.7926 41.4711 94.6385 41.6235C94.5914 41.6688 93.603 40.7999 93.1152 40.4046C86.9235 35.3602 80.7318 30.3199 74.54 25.2754C74.7326 24.4807 74.9294 23.69 75.122 22.8953H75.1263Z" fill="white"/>
<path d="M22.6662 26.8277C23.0299 25.9876 31.5922 28.6107 36.8596 30.5544C45.3534 33.6922 53.6633 38.156 53.3038 38.9714C53.03 39.6014 47.6513 37.9707 45.1951 37.2254C33.3252 33.6305 22.2383 27.8201 22.6704 26.8235L22.6662 26.8277Z" fill="white"/>
<path d="M24.6561 4.23779L25.4178 29.007L21.8662 24.8603L24.6561 4.23779Z" fill="white"/>
<path d="M52.6748 218.187L67.8867 233.926V228.803L52.6748 218.187Z" fill="white"/>
<path d="M125.138 87.7527C128.02 87.7527 130.356 85.2494 130.356 82.1614C130.356 79.0734 128.02 76.5701 125.138 76.5701C122.256 76.5701 119.92 79.0734 119.92 82.1614C119.92 85.2494 122.256 87.7527 125.138 87.7527Z" fill="url(#paint0_linear_506_108)"/>
<path d="M136.298 114.513C139.18 114.513 141.516 112.009 141.516 108.921C141.516 105.833 139.18 103.33 136.298 103.33C133.416 103.33 131.08 105.833 131.08 108.921C131.08 112.009 133.416 114.513 136.298 114.513Z" fill="url(#paint1_linear_506_108)"/>
<path d="M135.176 129.572C138.058 129.572 140.394 126.836 140.394 123.461C140.394 120.087 138.058 117.351 135.176 117.351C132.294 117.351 129.958 120.087 129.958 123.461C129.958 126.836 132.294 129.572 135.176 129.572Z" fill="url(#paint2_linear_506_108)"/>
<path d="M136.298 93.1737C139.18 93.1737 141.516 90.4381 141.516 87.0635C141.516 83.689 139.18 80.9534 136.298 80.9534C133.416 80.9534 131.08 83.689 131.08 87.0635C131.08 90.4381 133.416 93.1737 136.298 93.1737Z" fill="url(#paint3_linear_506_108)"/>
<path d="M142.725 122.431C145.606 122.431 147.943 119.696 147.943 116.321C147.943 112.947 145.606 110.211 142.725 110.211C139.843 110.211 137.507 112.947 137.507 116.321C137.507 119.696 139.843 122.431 142.725 122.431Z" fill="url(#paint4_linear_506_108)"/>
<path d="M141.521 103.326C144.402 103.326 146.738 100.591 146.738 97.2161C146.738 93.8416 144.402 91.106 141.521 91.106C138.639 91.106 136.303 93.8416 136.303 97.2161C136.303 100.591 138.639 103.326 141.521 103.326Z" fill="url(#paint5_linear_506_108)"/>
<path d="M151.957 138.264C154.839 138.264 157.175 135.529 157.175 132.154C157.175 128.78 154.839 126.044 151.957 126.044C149.075 126.044 146.739 128.78 146.739 132.154C146.739 135.529 149.075 138.264 151.957 138.264Z" fill="url(#paint6_linear_506_108)"/>
<path d="M154.93 114.513C157.812 114.513 160.148 112.009 160.148 108.921C160.148 105.833 157.812 103.33 154.93 103.33C152.048 103.33 149.712 105.833 149.712 108.921C149.712 112.009 152.048 114.513 154.93 114.513Z" fill="url(#paint7_linear_506_108)"/>
<path d="M151.957 104.356C154.839 104.356 157.175 101.853 157.175 98.7649C157.175 95.6769 154.839 93.1736 151.957 93.1736C149.075 93.1736 146.739 95.6769 146.739 98.7649C146.739 101.853 149.075 104.356 151.957 104.356Z" fill="url(#paint8_linear_506_108)"/>
<path d="M151.233 91.1059C154.115 91.1059 156.451 88.6026 156.451 85.5146C156.451 82.4266 154.115 79.9233 151.233 79.9233C148.352 79.9233 146.016 82.4266 146.016 85.5146C146.016 88.6026 148.352 91.1059 151.233 91.1059Z" fill="url(#paint9_linear_506_108)"/>
<path d="M143.849 150.627C146.73 150.627 149.067 148.124 149.067 145.036C149.067 141.948 146.73 139.445 143.849 139.445C140.967 139.445 138.631 141.948 138.631 145.036C138.631 148.124 140.967 150.627 143.849 150.627Z" fill="url(#paint10_linear_506_108)"/>
<path d="M141.521 139.464C144.402 139.464 146.738 136.961 146.738 133.873C146.738 130.785 144.402 128.281 141.521 128.281C138.639 128.281 136.303 130.785 136.303 133.873C136.303 136.961 138.639 139.464 141.521 139.464Z" fill="url(#paint11_linear_506_108)"/>
<path d="M128.751 96.7009C131.633 96.7009 133.969 94.1976 133.969 91.1096C133.969 88.0216 131.633 85.5183 128.751 85.5183C125.869 85.5183 123.533 88.0216 123.533 91.1096C123.533 94.1976 125.869 96.7009 128.751 96.7009Z" fill="url(#paint12_linear_506_108)"/>
<path d="M122.648 102.807C125.529 102.807 127.865 100.304 127.865 97.2158C127.865 94.1278 125.529 91.6245 122.648 91.6245C119.766 91.6245 117.43 94.1278 117.43 97.2158C117.43 100.304 119.766 102.807 122.648 102.807Z" fill="url(#paint13_linear_506_108)"/>
<path d="M119.157 92.2286C121.087 92.2286 122.652 90.5522 122.652 88.4843C122.652 86.4164 121.087 84.74 119.157 84.74C117.228 84.74 115.663 86.4164 115.663 88.4843C115.663 90.5522 117.228 92.2286 119.157 92.2286Z" fill="url(#paint14_linear_506_108)"/>
<path d="M145.012 110.815C146.942 110.815 148.506 109.138 148.506 107.07C148.506 105.003 146.942 103.326 145.012 103.326C143.082 103.326 141.518 105.003 141.518 107.07C141.518 109.138 143.082 110.815 145.012 110.815Z" fill="url(#paint15_linear_506_108)"/>
<path d="M157.178 118.257C159.108 118.257 160.672 116.581 160.672 114.513C160.672 112.445 159.108 110.769 157.178 110.769C155.248 110.769 153.684 112.445 153.684 114.513C153.684 116.581 155.248 118.257 157.178 118.257Z" fill="url(#paint16_linear_506_108)"/>
<path d="M132.083 101.994C134.013 101.994 135.577 100.318 135.577 98.2502C135.577 96.1822 134.013 94.5059 132.083 94.5059C130.153 94.5059 128.589 96.1822 128.589 98.2502C128.589 100.318 130.153 101.994 132.083 101.994Z" fill="url(#paint17_linear_506_108)"/>
<path d="M129.957 104.426C131.887 104.426 133.451 102.749 133.451 100.681C133.451 98.6134 131.887 96.937 129.957 96.937C128.027 96.937 126.463 98.6134 126.463 100.681C126.463 102.749 128.027 104.426 129.957 104.426Z" fill="url(#paint18_linear_506_108)"/>
<path d="M146.016 87.3226C147.946 87.3226 149.51 85.6462 149.51 83.5783C149.51 81.5104 147.946 79.834 146.016 79.834C144.086 79.834 142.521 81.5104 142.521 83.5783C142.521 85.6462 144.086 87.3226 146.016 87.3226Z" fill="url(#paint19_linear_506_108)"/>
<path d="M146.016 94.8541C147.946 94.8541 149.51 93.1777 149.51 91.1098C149.51 89.0419 147.946 87.3655 146.016 87.3655C144.086 87.3655 142.521 89.0419 142.521 91.1098C142.521 93.1777 144.086 94.8541 146.016 94.8541Z" fill="url(#paint20_linear_506_108)"/>
<path d="M137.503 143.988C139.433 143.988 140.997 142.311 140.997 140.243C140.997 138.175 139.433 136.499 137.503 136.499C135.573 136.499 134.009 138.175 134.009 140.243C134.009 142.311 135.573 143.988 137.503 143.988Z" fill="url(#paint21_linear_506_108)"/>
<path d="M136.541 152.804C139.002 152.804 140.997 150.666 140.997 148.029C140.997 145.393 139.002 143.255 136.541 143.255C134.081 143.255 132.086 145.393 132.086 148.029C132.086 150.666 134.081 152.804 136.541 152.804Z" fill="url(#paint22_linear_506_108)"/>
<path d="M153.04 125.869C155.856 125.869 158.139 123.423 158.139 120.406C158.139 117.388 155.856 114.942 153.04 114.942C150.224 114.942 147.941 117.388 147.941 120.406C147.941 123.423 150.224 125.869 153.04 125.869Z" fill="url(#paint23_linear_506_108)"/>
<path d="M146.016 130.594C148.832 130.594 151.114 128.147 151.114 125.13C151.114 122.113 148.832 119.667 146.016 119.667C143.2 119.667 140.917 122.113 140.917 125.13C140.917 128.147 143.2 130.594 146.016 130.594Z" fill="url(#paint24_linear_506_108)"/>
<path d="M150.674 143.209C152.848 143.209 154.609 141.321 154.609 138.992C154.609 136.664 152.848 134.776 150.674 134.776C148.501 134.776 146.739 136.664 146.739 138.992C146.739 141.321 148.501 143.209 150.674 143.209Z" fill="url(#paint25_linear_506_108)"/>
<defs>
<linearGradient id="paint0_linear_506_108" x1="119.92" y1="82.1614" x2="130.359" y2="82.1614" gradientUnits="userSpaceOnUse">
<stop stop-color="#A5000E"/>
<stop offset="1" stop-color="#720013"/>
</linearGradient>
<linearGradient id="paint1_linear_506_108" x1="131.08" y1="108.921" x2="141.519" y2="108.921" gradientUnits="userSpaceOnUse">
<stop stop-color="#A5000E"/>
<stop offset="1" stop-color="#720013"/>
</linearGradient>
<linearGradient id="paint2_linear_506_108" x1="129.958" y1="123.461" x2="140.394" y2="123.461" gradientUnits="userSpaceOnUse">
<stop stop-color="#A5000E"/>
<stop offset="1" stop-color="#720013"/>
</linearGradient>
<linearGradient id="paint3_linear_506_108" x1="131.08" y1="87.0635" x2="141.519" y2="87.0635" gradientUnits="userSpaceOnUse">
<stop stop-color="#A5000E"/>
<stop offset="1" stop-color="#720013"/>
</linearGradient>
<linearGradient id="paint4_linear_506_108" x1="137.503" y1="116.321" x2="147.943" y2="116.321" gradientUnits="userSpaceOnUse">
<stop stop-color="#A5000E"/>
<stop offset="1" stop-color="#720013"/>
</linearGradient>
<linearGradient id="paint5_linear_506_108" x1="136.299" y1="97.2161" x2="146.738" y2="97.2161" gradientUnits="userSpaceOnUse">
<stop stop-color="#A5000E"/>
<stop offset="1" stop-color="#720013"/>
</linearGradient>
<linearGradient id="paint6_linear_506_108" x1="146.739" y1="132.154" x2="157.179" y2="132.154" gradientUnits="userSpaceOnUse">
<stop stop-color="#A5000E"/>
<stop offset="1" stop-color="#720013"/>
</linearGradient>
<linearGradient id="paint7_linear_506_108" x1="149.708" y1="108.921" x2="160.148" y2="108.921" gradientUnits="userSpaceOnUse">
<stop stop-color="#A5000E"/>
<stop offset="1" stop-color="#720013"/>
</linearGradient>
<linearGradient id="paint8_linear_506_108" x1="146.739" y1="98.7649" x2="157.179" y2="98.7649" gradientUnits="userSpaceOnUse">
<stop stop-color="#A5000E"/>
<stop offset="1" stop-color="#720013"/>
</linearGradient>
<linearGradient id="paint9_linear_506_108" x1="146.016" y1="85.5146" x2="156.455" y2="85.5146" gradientUnits="userSpaceOnUse">
<stop stop-color="#A5000E"/>
<stop offset="1" stop-color="#720013"/>
</linearGradient>
<linearGradient id="paint10_linear_506_108" x1="138.631" y1="145.036" x2="149.067" y2="145.036" gradientUnits="userSpaceOnUse">
<stop stop-color="#A5000E"/>
<stop offset="1" stop-color="#720013"/>
</linearGradient>
<linearGradient id="paint11_linear_506_108" x1="136.299" y1="133.873" x2="146.738" y2="133.873" gradientUnits="userSpaceOnUse">
<stop stop-color="#A5000E"/>
<stop offset="1" stop-color="#720013"/>
</linearGradient>
<linearGradient id="paint12_linear_506_108" x1="123.533" y1="91.1096" x2="133.973" y2="91.1096" gradientUnits="userSpaceOnUse">
<stop stop-color="#A5000E"/>
<stop offset="1" stop-color="#720013"/>
</linearGradient>
<linearGradient id="paint13_linear_506_108" x1="117.43" y1="97.2158" x2="127.869" y2="97.2158" gradientUnits="userSpaceOnUse">
<stop stop-color="#A5000E"/>
<stop offset="1" stop-color="#720013"/>
</linearGradient>
<linearGradient id="paint14_linear_506_108" x1="115.663" y1="88.4843" x2="122.648" y2="88.4843" gradientUnits="userSpaceOnUse">
<stop stop-color="#A5000E"/>
<stop offset="1" stop-color="#720013"/>
</linearGradient>
<linearGradient id="paint15_linear_506_108" x1="141.521" y1="107.07" x2="148.506" y2="107.07" gradientUnits="userSpaceOnUse">
<stop stop-color="#A5000E"/>
<stop offset="1" stop-color="#720013"/>
</linearGradient>
<linearGradient id="paint16_linear_506_108" x1="153.684" y1="114.513" x2="160.672" y2="114.513" gradientUnits="userSpaceOnUse">
<stop stop-color="#A5000E"/>
<stop offset="1" stop-color="#720013"/>
</linearGradient>
<linearGradient id="paint17_linear_506_108" x1="128.592" y1="98.2502" x2="135.577" y2="98.2502" gradientUnits="userSpaceOnUse">
<stop stop-color="#A5000E"/>
<stop offset="1" stop-color="#720013"/>
</linearGradient>
<linearGradient id="paint18_linear_506_108" x1="126.463" y1="100.681" x2="133.448" y2="100.681" gradientUnits="userSpaceOnUse">
<stop stop-color="#A5000E"/>
<stop offset="1" stop-color="#720013"/>
</linearGradient>
<linearGradient id="paint19_linear_506_108" x1="142.521" y1="83.5783" x2="149.51" y2="83.5783" gradientUnits="userSpaceOnUse">
<stop stop-color="#A5000E"/>
<stop offset="1" stop-color="#720013"/>
</linearGradient>
<linearGradient id="paint20_linear_506_108" x1="142.521" y1="91.1098" x2="149.51" y2="91.1098" gradientUnits="userSpaceOnUse">
<stop stop-color="#A5000E"/>
<stop offset="1" stop-color="#720013"/>
</linearGradient>
<linearGradient id="paint21_linear_506_108" x1="134.012" y1="140.243" x2="140.997" y2="140.243" gradientUnits="userSpaceOnUse">
<stop stop-color="#A5000E"/>
<stop offset="1" stop-color="#720013"/>
</linearGradient>
<linearGradient id="paint22_linear_506_108" x1="132.082" y1="148.029" x2="140.997" y2="148.029" gradientUnits="userSpaceOnUse">
<stop stop-color="#A5000E"/>
<stop offset="1" stop-color="#720013"/>
</linearGradient>
<linearGradient id="paint23_linear_506_108" x1="147.941" y1="120.406" x2="158.142" y2="120.406" gradientUnits="userSpaceOnUse">
<stop stop-color="#A5000E"/>
<stop offset="1" stop-color="#720013"/>
</linearGradient>
<linearGradient id="paint24_linear_506_108" x1="140.917" y1="125.13" x2="151.114" y2="125.13" gradientUnits="userSpaceOnUse">
<stop stop-color="#A5000E"/>
<stop offset="1" stop-color="#720013"/>
</linearGradient>
<linearGradient id="paint25_linear_506_108" x1="146.739" y1="138.992" x2="154.609" y2="138.992" gradientUnits="userSpaceOnUse">
<stop stop-color="#A5000E"/>
<stop offset="1" stop-color="#720013"/>
</linearGradient>
</defs>
</svg>
