<svg width="276" height="276" viewBox="0 0 276 276" fill="none" xmlns="http://www.w3.org/2000/svg">
<circle cx="138" cy="138" r="138" fill="#262626"/>
<path d="M163.234 98.0642C165.78 98.0642 167.844 96.0002 167.844 93.4543C167.844 90.9083 165.78 88.8444 163.234 88.8444C160.688 88.8444 158.624 90.9083 158.624 93.4543C158.624 96.0002 160.688 98.0642 163.234 98.0642Z" fill="url(#paint0_linear_159_4)"/>
<path d="M173.096 120.127C175.641 120.127 177.705 118.063 177.705 115.517C177.705 112.971 175.641 110.907 173.096 110.907C170.55 110.907 168.486 112.971 168.486 115.517C168.486 118.063 170.55 120.127 173.096 120.127Z" fill="url(#paint1_linear_159_4)"/>
<path d="M172.103 132.543C174.649 132.543 176.713 130.287 176.713 127.505C176.713 124.723 174.649 122.467 172.103 122.467C169.557 122.467 167.493 124.723 167.493 127.505C167.493 130.287 169.557 132.543 172.103 132.543Z" fill="url(#paint2_linear_159_4)"/>
<path d="M173.096 102.534C175.641 102.534 177.705 100.278 177.705 97.4958C177.705 94.7136 175.641 92.4581 173.096 92.4581C170.55 92.4581 168.486 94.7136 168.486 97.4958C168.486 100.278 170.55 102.534 173.096 102.534Z" fill="url(#paint3_linear_159_4)"/>
<path d="M178.772 126.656C181.318 126.656 183.382 124.4 183.382 121.618C183.382 118.836 181.318 116.58 178.772 116.58C176.226 116.58 174.162 118.836 174.162 121.618C174.162 124.4 176.226 126.656 178.772 126.656Z" fill="url(#paint4_linear_159_4)"/>
<path d="M177.709 110.904C180.255 110.904 182.318 108.649 182.318 105.867C182.318 103.084 180.255 100.829 177.709 100.829C175.163 100.829 173.099 103.084 173.099 105.867C173.099 108.649 175.163 110.904 177.709 110.904Z" fill="url(#paint5_linear_159_4)"/>
<path d="M186.929 139.71C189.474 139.71 191.538 137.454 191.538 134.672C191.538 131.89 189.474 129.634 186.929 129.634C184.383 129.634 182.319 131.89 182.319 134.672C182.319 137.454 184.383 139.71 186.929 139.71Z" fill="url(#paint6_linear_159_4)"/>
<path d="M189.556 120.127C192.102 120.127 194.166 118.063 194.166 115.517C194.166 112.971 192.102 110.907 189.556 110.907C187.01 110.907 184.946 112.971 184.946 115.517C184.946 118.063 187.01 120.127 189.556 120.127Z" fill="url(#paint7_linear_159_4)"/>
<path d="M186.929 111.754C189.474 111.754 191.538 109.69 191.538 107.144C191.538 104.598 189.474 102.534 186.929 102.534C184.383 102.534 182.319 104.598 182.319 107.144C182.319 109.69 184.383 111.754 186.929 111.754Z" fill="url(#paint8_linear_159_4)"/>
<path d="M186.29 100.829C188.836 100.829 190.9 98.7649 190.9 96.2189C190.9 93.6729 188.836 91.609 186.29 91.609C183.744 91.609 181.68 93.6729 181.68 96.2189C181.68 98.7649 183.744 100.829 186.29 100.829Z" fill="url(#paint9_linear_159_4)"/>
<path d="M179.764 149.903C182.31 149.903 184.374 147.839 184.374 145.293C184.374 142.747 182.31 140.683 179.764 140.683C177.218 140.683 175.155 142.747 175.155 145.293C175.155 147.839 177.218 149.903 179.764 149.903Z" fill="url(#paint10_linear_159_4)"/>
<path d="M177.709 140.699C180.255 140.699 182.318 138.636 182.318 136.09C182.318 133.544 180.255 131.48 177.709 131.48C175.163 131.48 173.099 133.544 173.099 136.09C173.099 138.636 175.163 140.699 177.709 140.699Z" fill="url(#paint11_linear_159_4)"/>
<path d="M166.427 105.442C168.973 105.442 171.036 103.378 171.036 100.832C171.036 98.286 168.973 96.222 166.427 96.222C163.881 96.222 161.817 98.286 161.817 100.832C161.817 103.378 163.881 105.442 166.427 105.442Z" fill="url(#paint12_linear_159_4)"/>
<path d="M161.034 110.476C163.58 110.476 165.644 108.412 165.644 105.866C165.644 103.321 163.58 101.257 161.034 101.257C158.488 101.257 156.425 103.321 156.425 105.866C156.425 108.412 158.488 110.476 161.034 110.476Z" fill="url(#paint13_linear_159_4)"/>
<path d="M157.95 101.755C159.655 101.755 161.037 100.373 161.037 98.6675C161.037 96.9626 159.655 95.5804 157.95 95.5804C156.245 95.5804 154.863 96.9626 154.863 98.6675C154.863 100.373 156.245 101.755 157.95 101.755Z" fill="url(#paint14_linear_159_4)"/>
<path d="M180.792 117.078C182.497 117.078 183.88 115.696 183.88 113.991C183.88 112.286 182.497 110.904 180.792 110.904C179.087 110.904 177.705 112.286 177.705 113.991C177.705 115.696 179.087 117.078 180.792 117.078Z" fill="url(#paint15_linear_159_4)"/>
<path d="M191.541 123.214C193.246 123.214 194.629 121.832 194.629 120.127C194.629 118.422 193.246 117.04 191.541 117.04C189.836 117.04 188.454 118.422 188.454 120.127C188.454 121.832 189.836 123.214 191.541 123.214Z" fill="url(#paint16_linear_159_4)"/>
<path d="M169.37 109.806C171.075 109.806 172.457 108.424 172.457 106.719C172.457 105.014 171.075 103.632 169.37 103.632C167.665 103.632 166.283 105.014 166.283 106.719C166.283 108.424 167.665 109.806 169.37 109.806Z" fill="url(#paint17_linear_159_4)"/>
<path d="M167.493 111.811C169.198 111.811 170.58 110.429 170.58 108.724C170.58 107.019 169.198 105.637 167.493 105.637C165.788 105.637 164.406 107.019 164.406 108.724C164.406 110.429 165.788 111.811 167.493 111.811Z" fill="url(#paint18_linear_159_4)"/>
<path d="M181.68 97.7097C183.385 97.7097 184.767 96.3276 184.767 94.6226C184.767 92.9177 183.385 91.5355 181.68 91.5355C179.975 91.5355 178.593 92.9177 178.593 94.6226C178.593 96.3276 179.975 97.7097 181.68 97.7097Z" fill="url(#paint19_linear_159_4)"/>
<path d="M181.68 103.919C183.385 103.919 184.767 102.537 184.767 100.832C184.767 99.127 183.385 97.7449 181.68 97.7449C179.975 97.7449 178.593 99.127 178.593 100.832C178.593 102.537 179.975 103.919 181.68 103.919Z" fill="url(#paint20_linear_159_4)"/>
<path d="M174.158 144.428C175.863 144.428 177.246 143.046 177.246 141.341C177.246 139.636 175.863 138.254 174.158 138.254C172.453 138.254 171.071 139.636 171.071 141.341C171.071 143.046 172.453 144.428 174.158 144.428Z" fill="url(#paint21_linear_159_4)"/>
<path d="M173.309 151.697C175.483 151.697 177.246 149.935 177.246 147.761C177.246 145.587 175.483 143.825 173.309 143.825C171.135 143.825 169.373 145.587 169.373 147.761C169.373 149.935 171.135 151.697 173.309 151.697Z" fill="url(#paint22_linear_159_4)"/>
<path d="M187.886 129.491C190.374 129.491 192.391 127.474 192.391 124.986C192.391 122.498 190.374 120.482 187.886 120.482C185.398 120.482 183.382 122.498 183.382 124.986C183.382 127.474 185.398 129.491 187.886 129.491Z" fill="url(#paint23_linear_159_4)"/>
<path d="M181.68 133.385C184.168 133.385 186.184 131.369 186.184 128.881C186.184 126.393 184.168 124.376 181.68 124.376C179.192 124.376 177.175 126.393 177.175 128.881C177.175 131.369 179.192 133.385 181.68 133.385Z" fill="url(#paint24_linear_159_4)"/>
<path d="M185.795 143.787C187.715 143.787 189.272 142.23 189.272 140.31C189.272 138.39 187.715 136.833 185.795 136.833C183.875 136.833 182.319 138.39 182.319 140.31C182.319 142.23 183.875 143.787 185.795 143.787Z" fill="url(#paint25_linear_159_4)"/>
<path d="M155.107 215.981C163.998 214.397 173.227 214.158 182.702 214.471C185.668 214.547 183.427 213.95 181.955 213.216C176.295 210.451 172.439 205.803 172.445 199.61C171.956 189.298 169.83 160.059 178.942 154.328C204.13 142.593 199.82 111.655 194.227 88.1102C193.493 86.2203 191.868 85.3519 189.943 85.3902C178.309 85.3232 163.701 85.9138 151.758 83.2513C163.959 82.6064 181.457 82.8522 194.029 83.197C195.948 83.5897 196.832 85.5115 197.423 87.3216C204.309 115.246 208.954 142.593 181.023 158.178C178.954 159.583 177.968 161.447 177.77 163.797C176.64 176.825 174.948 191.246 177.278 203.607C178.491 206.608 180.672 209.2 183.644 210.394C185.671 211.246 188.366 211.607 190.099 212.696C192.577 214.27 191.912 216.69 189.007 216.919C179.031 217.079 156.933 216.811 150.631 216.52C151.78 216.294 153.664 216.188 155.107 215.984V215.981Z" fill="white"/>
<path d="M89.693 28.5261C91.0403 28.724 92.7801 30.1798 92.9972 31.5525C93.7922 36.5679 92.3651 43.5051 92.9972 48.6577C93.0451 49.0408 92.9781 49.3057 93.3261 49.5963C93.7698 49.9666 99.1235 51.1925 100.362 51.6714C100.621 51.7703 100.646 52.23 101.001 52.3737C105.582 54.2285 110.093 56.077 114.342 58.6405L125.848 46.6017C126.99 45.6025 128.577 45.3152 130.042 45.7717C131.508 46.2282 135.684 51.4447 136.976 52.7664C141.58 57.4625 148.425 63.4771 152.332 68.4349C155.911 72.9778 152.361 74.3123 149.938 77.6931C148.003 80.1098 143.834 83.0053 142.174 85.339C141.95 85.6551 141.165 86.8905 141.229 87.1427C145.264 93.7575 147.834 101.097 149.941 108.519L167.445 108.73C169.734 109.675 170.063 111.275 170.216 113.557C170.775 121.886 170.855 135.397 170.216 143.675C170.044 145.893 169.482 147.554 167.18 148.237L149.938 148.393C147.828 155.809 145.274 163.168 141.245 169.763C141.162 170.083 142.266 171.637 142.554 171.985C145.063 175.025 148.45 177.681 151.036 180.742C152.683 182.696 154.851 183.804 153.398 187.016C147.074 193.656 140.884 200.475 134.464 207.019C131.766 209.768 129.439 213.379 125.439 210.02C124.172 208.957 122.936 206.988 121.914 205.934C119.421 203.361 116.679 201.03 114.342 198.32C108.841 201.726 103.022 203.667 97.058 205.931C96.8505 206.011 96.825 206.403 96.56 206.505C95.2479 207.01 93.1984 206.659 92.9972 208.261C92.3524 213.401 93.7922 220.345 92.9972 225.363C92.8025 226.596 90.9285 228.39 89.693 228.39H74.3501V224.271H89.2206V204.156C91.7617 203.201 94.635 202.662 97.2943 201.787C99.1619 201.171 101.234 200.398 103.037 199.616C107.13 197.844 110.671 195.262 114.696 193.231L128.449 207.332L129.091 207.016L149.957 185.151C148.409 183.086 136.408 171.95 136.37 170.581C136.357 170.064 139.569 164.981 140.108 163.883C142.397 159.228 144.3 153.884 145.689 148.882C146.126 147.305 146.286 145.475 146.953 144.131H166.092V112.772H146.953C146.27 112.261 146.535 111.326 146.337 110.54C144.144 101.885 140.961 93.5404 136.073 86.0509L149.954 71.7519L128.606 49.4271L114.693 63.6718C107.076 58.7905 98.833 54.7872 89.7601 53.1559L89.2206 52.7472V32.7912C89.2206 32.6794 88.7608 32.258 88.5054 32.3762L74.3501 32.6348V28.5165H89.6962L89.693 28.5261Z" fill="white"/>
<path d="M98.1784 86.3862C117.011 98.3611 125.381 120.178 119.498 141.996C114.086 162.063 95.551 177.924 74.3467 177.406V173.601C78.1265 173.489 82.5226 173.189 86.1205 171.989C126.071 158.66 128.187 101.646 88.9681 85.8882C84.5785 84.126 79.0587 83.4173 74.3467 83.3279V79.5224C82.015 79.3596 90.7623 81.5018 97.3643 85.4732C97.8559 85.7701 97.9932 86.2681 98.1784 86.3862Z" fill="white"/>
<path d="M74.3499 162.833C81.6159 163.037 89.9418 160.078 95.385 155.228C116.509 136.396 108.385 102.125 81.7085 94.4312C79.5919 93.8214 76.5527 93.7927 74.3467 93.7799V89.6584C80.3421 89.9777 86.9473 91.2898 92.1446 94.4216C110.38 105.4 116.679 129.277 106.239 148.042C99.9853 159.286 87.3272 167.242 74.3499 167.267V162.833Z" fill="white"/>
<path d="M95.0116 84.5856C95.6532 83.88 107.034 91.2706 113.834 101.991C117.292 107.44 118.422 111.945 120.079 118.544C120.251 119.236 120.491 120.242 120.267 120.341C119.584 120.641 115.785 111.849 110.619 103.692C102.46 90.8141 94.4657 85.1858 95.0116 84.5856Z" fill="white"/>
<path d="M92.7895 220.929V204.897L90.6602 206.03V220.929H92.7895Z" fill="white"/>
<path d="M91.7939 207.026C91.43 206.055 113.886 196.175 114.355 197.094C114.598 197.57 109.056 201.059 103.951 203.342C98.5013 205.778 91.9855 207.537 91.7939 207.026Z" fill="white"/>
<path d="M146.375 112.054C146.082 112.124 144.904 106.154 141.456 97.5822C138.471 90.1565 135.968 86.2171 136.182 86.0957C136.45 85.9457 140.996 92.0145 143.917 100.417C146.03 106.508 146.653 111.983 146.375 112.05V112.054Z" fill="white"/>
<path d="M140.747 86.7757C144.964 82.4914 149.178 78.2039 153.395 73.9197C153.619 73.527 153.906 72.8821 153.935 72.0744C153.986 70.6091 153.152 69.5492 152.453 68.6872C151.205 67.1453 148.926 65.2904 148.268 65.7789C147.767 66.1492 148.067 67.9881 151.46 74.2932C148.009 77.8176 144.555 81.3389 141.104 84.8634L140.747 86.7789V86.7757Z" fill="white"/>
<path d="M130.397 46.2666C137.331 53.0506 145.069 60.6678 144.954 60.7859C144.919 60.821 144.182 60.1474 143.818 59.8409C139.198 55.9302 134.579 52.0226 129.959 48.1118C130.103 47.4957 130.25 46.8827 130.394 46.2666H130.397Z" fill="white"/>
<path d="M91.2576 49.3154C91.529 48.6641 97.9171 50.6977 101.847 52.2045C108.184 54.6372 114.384 58.0978 114.116 58.7299C113.911 59.2184 109.898 57.9542 108.066 57.3763C99.21 54.5893 90.9384 50.0848 91.2608 49.3122L91.2576 49.3154Z" fill="white"/>
<path d="M92.7416 31.8016L93.3099 51.0043L90.6602 47.7895L92.7416 31.8016Z" fill="white"/>
<path d="M113.646 197.669L124.995 209.87V205.899L113.646 197.669Z" fill="white"/>
<defs>
<linearGradient id="paint0_linear_159_4" x1="158.624" y1="93.4543" x2="167.847" y2="93.4543" gradientUnits="userSpaceOnUse">
<stop stop-color="#A5000E"/>
<stop offset="1" stop-color="#720013"/>
</linearGradient>
<linearGradient id="paint1_linear_159_4" x1="168.486" y1="115.517" x2="177.709" y2="115.517" gradientUnits="userSpaceOnUse">
<stop stop-color="#A5000E"/>
<stop offset="1" stop-color="#720013"/>
</linearGradient>
<linearGradient id="paint2_linear_159_4" x1="167.493" y1="127.505" x2="176.713" y2="127.505" gradientUnits="userSpaceOnUse">
<stop stop-color="#A5000E"/>
<stop offset="1" stop-color="#720013"/>
</linearGradient>
<linearGradient id="paint3_linear_159_4" x1="168.486" y1="97.4958" x2="177.709" y2="97.4958" gradientUnits="userSpaceOnUse">
<stop stop-color="#A5000E"/>
<stop offset="1" stop-color="#720013"/>
</linearGradient>
<linearGradient id="paint4_linear_159_4" x1="174.159" y1="121.618" x2="183.382" y2="121.618" gradientUnits="userSpaceOnUse">
<stop stop-color="#A5000E"/>
<stop offset="1" stop-color="#720013"/>
</linearGradient>
<linearGradient id="paint5_linear_159_4" x1="173.095" y1="105.867" x2="182.318" y2="105.867" gradientUnits="userSpaceOnUse">
<stop stop-color="#A5000E"/>
<stop offset="1" stop-color="#720013"/>
</linearGradient>
<linearGradient id="paint6_linear_159_4" x1="182.319" y1="134.672" x2="191.542" y2="134.672" gradientUnits="userSpaceOnUse">
<stop stop-color="#A5000E"/>
<stop offset="1" stop-color="#720013"/>
</linearGradient>
<linearGradient id="paint7_linear_159_4" x1="184.943" y1="115.517" x2="194.166" y2="115.517" gradientUnits="userSpaceOnUse">
<stop stop-color="#A5000E"/>
<stop offset="1" stop-color="#720013"/>
</linearGradient>
<linearGradient id="paint8_linear_159_4" x1="182.319" y1="107.144" x2="191.542" y2="107.144" gradientUnits="userSpaceOnUse">
<stop stop-color="#A5000E"/>
<stop offset="1" stop-color="#720013"/>
</linearGradient>
<linearGradient id="paint9_linear_159_4" x1="181.68" y1="96.2189" x2="190.903" y2="96.2189" gradientUnits="userSpaceOnUse">
<stop stop-color="#A5000E"/>
<stop offset="1" stop-color="#720013"/>
</linearGradient>
<linearGradient id="paint10_linear_159_4" x1="175.155" y1="145.293" x2="184.374" y2="145.293" gradientUnits="userSpaceOnUse">
<stop stop-color="#A5000E"/>
<stop offset="1" stop-color="#720013"/>
</linearGradient>
<linearGradient id="paint11_linear_159_4" x1="173.095" y1="136.09" x2="182.318" y2="136.09" gradientUnits="userSpaceOnUse">
<stop stop-color="#A5000E"/>
<stop offset="1" stop-color="#720013"/>
</linearGradient>
<linearGradient id="paint12_linear_159_4" x1="161.817" y1="100.832" x2="171.04" y2="100.832" gradientUnits="userSpaceOnUse">
<stop stop-color="#A5000E"/>
<stop offset="1" stop-color="#720013"/>
</linearGradient>
<linearGradient id="paint13_linear_159_4" x1="156.425" y1="105.866" x2="165.648" y2="105.866" gradientUnits="userSpaceOnUse">
<stop stop-color="#A5000E"/>
<stop offset="1" stop-color="#720013"/>
</linearGradient>
<linearGradient id="paint14_linear_159_4" x1="154.863" y1="98.6675" x2="161.034" y2="98.6675" gradientUnits="userSpaceOnUse">
<stop stop-color="#A5000E"/>
<stop offset="1" stop-color="#720013"/>
</linearGradient>
<linearGradient id="paint15_linear_159_4" x1="177.709" y1="113.991" x2="183.88" y2="113.991" gradientUnits="userSpaceOnUse">
<stop stop-color="#A5000E"/>
<stop offset="1" stop-color="#720013"/>
</linearGradient>
<linearGradient id="paint16_linear_159_4" x1="188.454" y1="120.127" x2="194.629" y2="120.127" gradientUnits="userSpaceOnUse">
<stop stop-color="#A5000E"/>
<stop offset="1" stop-color="#720013"/>
</linearGradient>
<linearGradient id="paint17_linear_159_4" x1="166.286" y1="106.719" x2="172.457" y2="106.719" gradientUnits="userSpaceOnUse">
<stop stop-color="#A5000E"/>
<stop offset="1" stop-color="#720013"/>
</linearGradient>
<linearGradient id="paint18_linear_159_4" x1="164.406" y1="108.724" x2="170.577" y2="108.724" gradientUnits="userSpaceOnUse">
<stop stop-color="#A5000E"/>
<stop offset="1" stop-color="#720013"/>
</linearGradient>
<linearGradient id="paint19_linear_159_4" x1="178.593" y1="94.6226" x2="184.767" y2="94.6226" gradientUnits="userSpaceOnUse">
<stop stop-color="#A5000E"/>
<stop offset="1" stop-color="#720013"/>
</linearGradient>
<linearGradient id="paint20_linear_159_4" x1="178.593" y1="100.832" x2="184.767" y2="100.832" gradientUnits="userSpaceOnUse">
<stop stop-color="#A5000E"/>
<stop offset="1" stop-color="#720013"/>
</linearGradient>
<linearGradient id="paint21_linear_159_4" x1="171.074" y1="141.341" x2="177.246" y2="141.341" gradientUnits="userSpaceOnUse">
<stop stop-color="#A5000E"/>
<stop offset="1" stop-color="#720013"/>
</linearGradient>
<linearGradient id="paint22_linear_159_4" x1="169.37" y1="147.761" x2="177.246" y2="147.761" gradientUnits="userSpaceOnUse">
<stop stop-color="#A5000E"/>
<stop offset="1" stop-color="#720013"/>
</linearGradient>
<linearGradient id="paint23_linear_159_4" x1="183.382" y1="124.986" x2="192.394" y2="124.986" gradientUnits="userSpaceOnUse">
<stop stop-color="#A5000E"/>
<stop offset="1" stop-color="#720013"/>
</linearGradient>
<linearGradient id="paint24_linear_159_4" x1="177.175" y1="128.881" x2="186.184" y2="128.881" gradientUnits="userSpaceOnUse">
<stop stop-color="#A5000E"/>
<stop offset="1" stop-color="#720013"/>
</linearGradient>
<linearGradient id="paint25_linear_159_4" x1="182.319" y1="140.31" x2="189.272" y2="140.31" gradientUnits="userSpaceOnUse">
<stop stop-color="#A5000E"/>
<stop offset="1" stop-color="#720013"/>
</linearGradient>
</defs>
</svg>
