<svg width="129" height="201" viewBox="0 0 129 201" fill="none" xmlns="http://www.w3.org/2000/svg">
<path d="M89.2342 70.0642C91.7802 70.0642 93.8441 68.0002 93.8441 65.4543C93.8441 62.9083 91.7802 60.8444 89.2342 60.8444C86.6882 60.8444 84.6243 62.9083 84.6243 65.4543C84.6243 68.0002 86.6882 70.0642 89.2342 70.0642Z" fill="url(#paint0_linear_140_7)"/>
<path d="M99.0955 92.1273C101.641 92.1273 103.705 90.0634 103.705 87.5174C103.705 84.9714 101.641 82.9075 99.0955 82.9075C96.5495 82.9075 94.4856 84.9714 94.4856 87.5174C94.4856 90.0634 96.5495 92.1273 99.0955 92.1273Z" fill="url(#paint1_linear_140_7)"/>
<path d="M98.1028 104.543C100.649 104.543 102.713 102.287 102.713 99.505C102.713 96.7227 100.649 94.4673 98.1028 94.4673C95.5568 94.4673 93.4929 96.7227 93.4929 99.505C93.4929 102.287 95.5568 104.543 98.1028 104.543Z" fill="url(#paint2_linear_140_7)"/>
<path d="M99.0955 74.5335C101.641 74.5335 103.705 72.2781 103.705 69.4958C103.705 66.7136 101.641 64.4581 99.0955 64.4581C96.5495 64.4581 94.4856 66.7136 94.4856 69.4958C94.4856 72.2781 96.5495 74.5335 99.0955 74.5335Z" fill="url(#paint3_linear_140_7)"/>
<path d="M104.772 98.6558C107.318 98.6558 109.382 96.4004 109.382 93.6181C109.382 90.8359 107.318 88.5804 104.772 88.5804C102.226 88.5804 100.162 90.8359 100.162 93.6181C100.162 96.4004 102.226 98.6558 104.772 98.6558Z" fill="url(#paint4_linear_140_7)"/>
<path d="M103.709 82.9042C106.255 82.9042 108.318 80.6488 108.318 77.8665C108.318 75.0843 106.255 72.8289 103.709 72.8289C101.163 72.8289 99.0986 75.0843 99.0986 77.8665C99.0986 80.6488 101.163 82.9042 103.709 82.9042Z" fill="url(#paint5_linear_140_7)"/>
<path d="M112.929 111.71C115.474 111.71 117.538 109.454 117.538 106.672C117.538 103.89 115.474 101.634 112.929 101.634C110.383 101.634 108.319 103.89 108.319 106.672C108.319 109.454 110.383 111.71 112.929 111.71Z" fill="url(#paint6_linear_140_7)"/>
<path d="M115.556 92.1273C118.102 92.1273 120.166 90.0634 120.166 87.5174C120.166 84.9714 118.102 82.9075 115.556 82.9075C113.01 82.9075 110.946 84.9714 110.946 87.5174C110.946 90.0634 113.01 92.1273 115.556 92.1273Z" fill="url(#paint7_linear_140_7)"/>
<path d="M112.929 83.7535C115.474 83.7535 117.538 81.6896 117.538 79.1436C117.538 76.5976 115.474 74.5337 112.929 74.5337C110.383 74.5337 108.319 76.5976 108.319 79.1436C108.319 81.6896 110.383 83.7535 112.929 83.7535Z" fill="url(#paint8_linear_140_7)"/>
<path d="M112.29 72.8288C114.836 72.8288 116.9 70.7649 116.9 68.2189C116.9 65.6729 114.836 63.609 112.29 63.609C109.744 63.609 107.68 65.6729 107.68 68.2189C107.68 70.7649 109.744 72.8288 112.29 72.8288Z" fill="url(#paint9_linear_140_7)"/>
<path d="M105.764 121.903C108.31 121.903 110.374 119.839 110.374 117.293C110.374 114.747 108.31 112.683 105.764 112.683C103.218 112.683 101.155 114.747 101.155 117.293C101.155 119.839 103.218 121.903 105.764 121.903Z" fill="url(#paint10_linear_140_7)"/>
<path d="M103.709 112.699C106.255 112.699 108.318 110.636 108.318 108.09C108.318 105.544 106.255 103.48 103.709 103.48C101.163 103.48 99.0986 105.544 99.0986 108.09C99.0986 110.636 101.163 112.699 103.709 112.699Z" fill="url(#paint11_linear_140_7)"/>
<path d="M92.4266 77.4419C94.9725 77.4419 97.0365 75.3779 97.0365 72.832C97.0365 70.286 94.9725 68.222 92.4266 68.222C89.8806 68.222 87.8167 70.286 87.8167 72.832C87.8167 75.3779 89.8806 77.4419 92.4266 77.4419Z" fill="url(#paint12_linear_140_7)"/>
<path d="M87.0345 82.4764C89.5804 82.4764 91.6444 80.4125 91.6444 77.8665C91.6444 75.3205 89.5804 73.2566 87.0345 73.2566C84.4885 73.2566 82.4246 75.3205 82.4246 77.8665C82.4246 80.4125 84.4885 82.4764 87.0345 82.4764Z" fill="url(#paint13_linear_140_7)"/>
<path d="M83.9504 73.7546C85.6553 73.7546 87.0375 72.3725 87.0375 70.6675C87.0375 68.9626 85.6553 67.5804 83.9504 67.5804C82.2454 67.5804 80.8633 68.9626 80.8633 70.6675C80.8633 72.3725 82.2454 73.7546 83.9504 73.7546Z" fill="url(#paint14_linear_140_7)"/>
<path d="M106.792 89.0784C108.497 89.0784 109.88 87.6962 109.88 85.9913C109.88 84.2863 108.497 82.9042 106.792 82.9042C105.087 82.9042 103.705 84.2863 103.705 85.9913C103.705 87.6962 105.087 89.0784 106.792 89.0784Z" fill="url(#paint15_linear_140_7)"/>
<path d="M117.541 95.2144C119.246 95.2144 120.629 93.8322 120.629 92.1273C120.629 90.4223 119.246 89.0402 117.541 89.0402C115.836 89.0402 114.454 90.4223 114.454 92.1273C114.454 93.8322 115.836 95.2144 117.541 95.2144Z" fill="url(#paint16_linear_140_7)"/>
<path d="M95.3703 81.8061C97.0753 81.8061 98.4574 80.4239 98.4574 78.7189C98.4574 77.014 97.0753 75.6318 95.3703 75.6318C93.6654 75.6318 92.2832 77.014 92.2832 78.7189C92.2832 80.4239 93.6654 81.8061 95.3703 81.8061Z" fill="url(#paint17_linear_140_7)"/>
<path d="M93.4929 83.8108C95.1978 83.8108 96.58 82.4287 96.58 80.7237C96.58 79.0187 95.1978 77.6366 93.4929 77.6366C91.7879 77.6366 90.4058 79.0187 90.4058 80.7237C90.4058 82.4287 91.7879 83.8108 93.4929 83.8108Z" fill="url(#paint18_linear_140_7)"/>
<path d="M107.68 69.7097C109.385 69.7097 110.767 68.3276 110.767 66.6226C110.767 64.9177 109.385 63.5355 107.68 63.5355C105.975 63.5355 104.593 64.9177 104.593 66.6226C104.593 68.3276 105.975 69.7097 107.68 69.7097Z" fill="url(#paint19_linear_140_7)"/>
<path d="M107.68 75.9191C109.385 75.9191 110.767 74.5369 110.767 72.832C110.767 71.127 109.385 69.7449 107.68 69.7449C105.975 69.7449 104.593 71.127 104.593 72.832C104.593 74.5369 105.975 75.9191 107.68 75.9191Z" fill="url(#paint20_linear_140_7)"/>
<path d="M100.158 116.428C101.863 116.428 103.246 115.046 103.246 113.341C103.246 111.636 101.863 110.254 100.158 110.254C98.4534 110.254 97.0713 111.636 97.0713 113.341C97.0713 115.046 98.4534 116.428 100.158 116.428Z" fill="url(#paint21_linear_140_7)"/>
<path d="M99.3093 123.697C101.483 123.697 103.246 121.935 103.246 119.761C103.246 117.587 101.483 115.825 99.3093 115.825C97.1354 115.825 95.373 117.587 95.373 119.761C95.373 121.935 97.1354 123.697 99.3093 123.697Z" fill="url(#paint22_linear_140_7)"/>
<path d="M113.886 101.491C116.374 101.491 118.391 99.4739 118.391 96.9861C118.391 94.4983 116.374 92.4816 113.886 92.4816C111.398 92.4816 109.382 94.4983 109.382 96.9861C109.382 99.4739 111.398 101.491 113.886 101.491Z" fill="url(#paint23_linear_140_7)"/>
<path d="M107.68 105.385C110.168 105.385 112.184 103.369 112.184 100.881C112.184 98.3931 110.168 96.3763 107.68 96.3763C105.192 96.3763 103.175 98.3931 103.175 100.881C103.175 103.369 105.192 105.385 107.68 105.385Z" fill="url(#paint24_linear_140_7)"/>
<path d="M111.795 115.787C113.715 115.787 115.272 114.23 115.272 112.31C115.272 110.39 113.715 108.833 111.795 108.833C109.875 108.833 108.319 110.39 108.319 112.31C108.319 114.23 109.875 115.787 111.795 115.787Z" fill="url(#paint25_linear_140_7)"/>
<path d="M81.1067 187.981C89.9977 186.397 99.227 186.158 108.702 186.471C111.668 186.547 109.427 185.95 107.955 185.216C102.295 182.451 98.4385 177.803 98.4449 171.61C97.9565 161.298 95.8303 132.059 104.942 126.328C130.13 114.593 125.82 83.6545 120.227 60.1102C119.493 58.2203 117.868 57.3519 115.943 57.3902C104.309 57.3232 89.7008 57.9138 77.7578 55.2513C89.9594 54.6064 107.457 54.8522 120.029 55.197C121.948 55.5897 122.832 57.5115 123.423 59.3216C130.309 87.246 134.954 114.593 107.023 130.178C104.954 131.583 103.968 133.447 103.77 135.797C102.64 148.825 100.948 163.246 103.278 175.607C104.491 178.608 106.672 181.2 109.644 182.394C111.671 183.246 114.366 183.607 116.099 184.696C118.577 186.27 117.912 188.69 115.007 188.919C105.031 189.079 82.9328 188.811 76.6309 188.52C77.7801 188.294 79.6637 188.188 81.1067 187.984V187.981Z" fill="white"/>
<path d="M15.693 0.526056C17.0403 0.723989 18.7801 2.17975 18.9972 3.55251C19.7922 8.56786 18.3651 15.5051 18.9972 20.6577C19.0451 21.0408 18.9781 21.3057 19.3261 21.5963C19.7698 21.9666 25.1235 23.1925 26.3622 23.6714C26.6208 23.7703 26.6463 24.23 27.0007 24.3737C31.5819 26.2285 36.0928 28.077 40.342 30.6405L51.8476 18.6017C52.9905 17.6025 54.5772 17.3152 56.0425 17.7717C57.5078 18.2282 61.6835 23.4447 62.9765 24.7664C67.58 29.4625 74.4246 35.4771 78.3322 40.4349C81.911 44.9778 78.3609 46.3123 75.9379 49.6931C74.0032 52.1098 69.8339 55.0053 68.1738 57.339C67.9503 57.6551 67.165 58.8905 67.2288 59.1427C71.2641 65.7575 73.834 73.097 75.941 80.5194L93.4453 80.7301C95.7343 81.6751 96.0631 83.2745 96.2163 85.5571C96.775 93.8862 96.8548 107.397 96.2163 115.675C96.0439 117.893 95.4821 119.554 93.1803 120.237L75.9379 120.393C73.8277 127.809 71.2737 135.168 67.2448 141.763C67.1618 142.083 68.2664 143.637 68.5537 143.985C71.063 147.025 74.4502 149.681 77.0361 152.742C78.6834 154.696 80.8511 155.804 79.3985 159.016C73.0742 165.656 66.8841 172.475 60.464 179.019C57.7664 181.768 55.4391 185.379 51.439 182.02C50.1716 180.957 48.9361 178.988 47.9145 177.934C45.4212 175.361 42.6789 173.03 40.342 170.32C34.8414 173.726 29.0215 175.667 23.058 177.931C22.8505 178.011 22.825 178.403 22.56 178.505C21.2479 179.01 19.1984 178.659 18.9972 180.261C18.3524 185.401 19.7922 192.345 18.9972 197.363C18.8025 198.596 16.9285 200.39 15.693 200.39H0.350098V196.271H15.2206V176.156C17.7617 175.201 20.635 174.662 23.2943 173.787C25.1619 173.171 27.2338 172.398 29.0375 171.616C33.1302 169.844 36.6707 167.262 40.6964 165.231L54.4495 179.332L55.0911 179.016L75.957 157.151C74.4087 155.086 62.4082 143.95 62.3699 142.581C62.3572 142.064 65.5688 136.981 66.1083 135.883C68.3973 131.228 70.3 125.884 71.6887 120.882C72.1261 119.305 72.2857 117.475 72.9529 116.131H92.0917V84.7718H72.9529C72.2697 84.261 72.5347 83.3256 72.3368 82.5402C70.1436 73.8855 66.9607 65.5404 62.073 58.0509L75.9538 43.7519L54.6059 21.4271L40.6932 35.6718C33.076 30.7905 24.833 26.7872 15.7601 25.1559L15.2206 24.7472V4.79118C15.2206 4.67945 14.7608 4.25804 14.5054 4.37616L0.350098 4.63475V0.516479H15.6962L15.693 0.526056Z" fill="white"/>
<path d="M24.1784 58.3862C43.0106 70.3611 51.3813 92.1784 45.4976 113.996C40.0864 134.063 21.551 149.924 0.34668 149.406V145.601C4.12655 145.489 8.52256 145.189 12.1205 143.989C52.0708 130.66 54.1874 73.6462 14.9681 57.8882C10.5785 56.126 5.05874 55.4173 0.34668 55.3279V51.5224C8.01496 51.3596 16.7623 53.5018 23.3643 57.4732C23.8559 57.7701 23.9932 58.2681 24.1784 58.3862Z" fill="white"/>
<path d="M0.349875 134.833C7.6159 135.037 15.9418 132.078 21.385 127.228C42.5094 108.396 34.3846 74.125 7.70848 66.4312C5.59188 65.8214 2.55267 65.7927 0.34668 65.7799V61.6584C6.34211 61.9777 12.9473 63.2898 18.1446 66.4216C36.3799 77.4005 42.6786 101.277 32.2393 120.042C25.9853 131.286 13.3272 139.242 0.349875 139.267V134.833Z" fill="white"/>
<path d="M21.0116 56.5856C21.6532 55.88 33.0343 63.2706 39.8343 73.9908C43.2917 79.4404 44.4218 83.9449 46.0787 90.5437C46.2511 91.2365 46.4905 92.2421 46.2671 92.3411C45.5839 92.6412 41.7849 83.8491 36.6195 75.6924C28.4596 62.8141 20.4657 57.1858 21.0116 56.5856Z" fill="white"/>
<path d="M18.7895 192.929V176.897L16.6602 178.03V192.929H18.7895Z" fill="white"/>
<path d="M17.7939 179.026C17.43 178.055 39.8857 168.175 40.355 169.094C40.5976 169.57 35.0555 173.059 29.9508 175.342C24.5013 177.778 17.9855 179.537 17.7939 179.026Z" fill="white"/>
<path d="M72.3752 84.0536C72.0815 84.1238 70.9035 78.1539 67.4557 69.5822C64.4707 62.1565 61.9678 58.2171 62.1817 58.0957C62.4499 57.9457 66.9959 64.0145 69.917 72.4171C72.0304 78.5083 72.653 83.9834 72.3752 84.0504V84.0536Z" fill="white"/>
<path d="M66.7466 58.7757C70.9638 54.4914 75.1779 50.2039 79.3951 45.9197C79.6186 45.527 79.9059 44.8821 79.9346 44.0744C79.9857 42.6091 79.1525 41.5492 78.4533 40.6872C77.2051 39.1453 74.9257 37.2904 74.268 37.7789C73.7668 38.1492 74.0669 39.9881 77.4605 46.2932C74.0094 49.8176 70.5552 53.3389 67.1041 56.8634L66.7466 58.7789V58.7757Z" fill="white"/>
<path d="M56.3968 18.2666C63.3309 25.0506 71.0694 32.6678 70.9544 32.7859C70.9193 32.821 70.1819 32.1474 69.8179 31.8409C65.1984 27.9302 60.579 24.0226 55.9595 20.1118C56.1031 19.4957 56.25 18.8827 56.3936 18.2666H56.3968Z" fill="white"/>
<path d="M17.2576 21.3154C17.529 20.6641 23.9171 22.6977 27.847 24.2045C34.184 26.6372 40.3838 30.0978 40.1156 30.7299C39.9113 31.2184 35.8984 29.9542 34.0659 29.3763C25.21 26.5893 16.9384 22.0848 17.2608 21.3122L17.2576 21.3154Z" fill="white"/>
<path d="M18.7416 3.80164L19.3099 23.0043L16.6602 19.7895L18.7416 3.80164Z" fill="white"/>
<path d="M39.6458 169.669L50.9949 181.87V177.899L39.6458 169.669Z" fill="white"/>
<defs>
<linearGradient id="paint0_linear_140_7" x1="84.6243" y1="65.4543" x2="93.8473" y2="65.4543" gradientUnits="userSpaceOnUse">
<stop stop-color="#A5000E"/>
<stop offset="1" stop-color="#720013"/>
</linearGradient>
<linearGradient id="paint1_linear_140_7" x1="94.4856" y1="87.5174" x2="103.709" y2="87.5174" gradientUnits="userSpaceOnUse">
<stop stop-color="#A5000E"/>
<stop offset="1" stop-color="#720013"/>
</linearGradient>
<linearGradient id="paint2_linear_140_7" x1="93.4929" y1="99.505" x2="102.713" y2="99.505" gradientUnits="userSpaceOnUse">
<stop stop-color="#A5000E"/>
<stop offset="1" stop-color="#720013"/>
</linearGradient>
<linearGradient id="paint3_linear_140_7" x1="94.4856" y1="69.4958" x2="103.709" y2="69.4958" gradientUnits="userSpaceOnUse">
<stop stop-color="#A5000E"/>
<stop offset="1" stop-color="#720013"/>
</linearGradient>
<linearGradient id="paint4_linear_140_7" x1="100.159" y1="93.6181" x2="109.382" y2="93.6181" gradientUnits="userSpaceOnUse">
<stop stop-color="#A5000E"/>
<stop offset="1" stop-color="#720013"/>
</linearGradient>
<linearGradient id="paint5_linear_140_7" x1="99.0954" y1="77.8666" x2="108.318" y2="77.8666" gradientUnits="userSpaceOnUse">
<stop stop-color="#A5000E"/>
<stop offset="1" stop-color="#720013"/>
</linearGradient>
<linearGradient id="paint6_linear_140_7" x1="108.319" y1="106.672" x2="117.542" y2="106.672" gradientUnits="userSpaceOnUse">
<stop stop-color="#A5000E"/>
<stop offset="1" stop-color="#720013"/>
</linearGradient>
<linearGradient id="paint7_linear_140_7" x1="110.943" y1="87.5174" x2="120.166" y2="87.5174" gradientUnits="userSpaceOnUse">
<stop stop-color="#A5000E"/>
<stop offset="1" stop-color="#720013"/>
</linearGradient>
<linearGradient id="paint8_linear_140_7" x1="108.319" y1="79.1436" x2="117.542" y2="79.1436" gradientUnits="userSpaceOnUse">
<stop stop-color="#A5000E"/>
<stop offset="1" stop-color="#720013"/>
</linearGradient>
<linearGradient id="paint9_linear_140_7" x1="107.68" y1="68.2189" x2="116.903" y2="68.2189" gradientUnits="userSpaceOnUse">
<stop stop-color="#A5000E"/>
<stop offset="1" stop-color="#720013"/>
</linearGradient>
<linearGradient id="paint10_linear_140_7" x1="101.155" y1="117.293" x2="110.374" y2="117.293" gradientUnits="userSpaceOnUse">
<stop stop-color="#A5000E"/>
<stop offset="1" stop-color="#720013"/>
</linearGradient>
<linearGradient id="paint11_linear_140_7" x1="99.0954" y1="108.09" x2="108.318" y2="108.09" gradientUnits="userSpaceOnUse">
<stop stop-color="#A5000E"/>
<stop offset="1" stop-color="#720013"/>
</linearGradient>
<linearGradient id="paint12_linear_140_7" x1="87.8167" y1="72.832" x2="97.0397" y2="72.832" gradientUnits="userSpaceOnUse">
<stop stop-color="#A5000E"/>
<stop offset="1" stop-color="#720013"/>
</linearGradient>
<linearGradient id="paint13_linear_140_7" x1="82.4246" y1="77.8665" x2="91.6476" y2="77.8665" gradientUnits="userSpaceOnUse">
<stop stop-color="#A5000E"/>
<stop offset="1" stop-color="#720013"/>
</linearGradient>
<linearGradient id="paint14_linear_140_7" x1="80.8633" y1="70.6675" x2="87.0343" y2="70.6675" gradientUnits="userSpaceOnUse">
<stop stop-color="#A5000E"/>
<stop offset="1" stop-color="#720013"/>
</linearGradient>
<linearGradient id="paint15_linear_140_7" x1="103.709" y1="85.9913" x2="109.88" y2="85.9913" gradientUnits="userSpaceOnUse">
<stop stop-color="#A5000E"/>
<stop offset="1" stop-color="#720013"/>
</linearGradient>
<linearGradient id="paint16_linear_140_7" x1="114.454" y1="92.1273" x2="120.629" y2="92.1273" gradientUnits="userSpaceOnUse">
<stop stop-color="#A5000E"/>
<stop offset="1" stop-color="#720013"/>
</linearGradient>
<linearGradient id="paint17_linear_140_7" x1="92.2864" y1="78.7189" x2="98.4574" y2="78.7189" gradientUnits="userSpaceOnUse">
<stop stop-color="#A5000E"/>
<stop offset="1" stop-color="#720013"/>
</linearGradient>
<linearGradient id="paint18_linear_140_7" x1="90.4058" y1="80.7237" x2="96.5768" y2="80.7237" gradientUnits="userSpaceOnUse">
<stop stop-color="#A5000E"/>
<stop offset="1" stop-color="#720013"/>
</linearGradient>
<linearGradient id="paint19_linear_140_7" x1="104.593" y1="66.6226" x2="110.767" y2="66.6226" gradientUnits="userSpaceOnUse">
<stop stop-color="#A5000E"/>
<stop offset="1" stop-color="#720013"/>
</linearGradient>
<linearGradient id="paint20_linear_140_7" x1="104.593" y1="72.832" x2="110.767" y2="72.832" gradientUnits="userSpaceOnUse">
<stop stop-color="#A5000E"/>
<stop offset="1" stop-color="#720013"/>
</linearGradient>
<linearGradient id="paint21_linear_140_7" x1="97.0745" y1="113.341" x2="103.246" y2="113.341" gradientUnits="userSpaceOnUse">
<stop stop-color="#A5000E"/>
<stop offset="1" stop-color="#720013"/>
</linearGradient>
<linearGradient id="paint22_linear_140_7" x1="95.3699" y1="119.761" x2="103.246" y2="119.761" gradientUnits="userSpaceOnUse">
<stop stop-color="#A5000E"/>
<stop offset="1" stop-color="#720013"/>
</linearGradient>
<linearGradient id="paint23_linear_140_7" x1="109.382" y1="96.9861" x2="118.394" y2="96.9861" gradientUnits="userSpaceOnUse">
<stop stop-color="#A5000E"/>
<stop offset="1" stop-color="#720013"/>
</linearGradient>
<linearGradient id="paint24_linear_140_7" x1="103.175" y1="100.881" x2="112.184" y2="100.881" gradientUnits="userSpaceOnUse">
<stop stop-color="#A5000E"/>
<stop offset="1" stop-color="#720013"/>
</linearGradient>
<linearGradient id="paint25_linear_140_7" x1="108.319" y1="112.31" x2="115.272" y2="112.31" gradientUnits="userSpaceOnUse">
<stop stop-color="#A5000E"/>
<stop offset="1" stop-color="#720013"/>
</linearGradient>
</defs>
</svg>
