<svg width="412" height="412" viewBox="0 0 412 412" fill="none" xmlns="http://www.w3.org/2000/svg">
<g clip-path="url(#clip0_363_39)">
<path d="M1 406.498C8.60965 406 16.2193 406 24.2337 406C24.2337 395.584 24.2337 385.628 24.2337 375.672C24.2337 363.173 24.1581 350.673 24.2952 338.175C24.3239 335.56 23.7778 334.053 21.1982 332.866C12.8221 329.01 9.01394 322.235 9.02684 313.022C9.08707 270.024 9.11305 227.026 8.96847 184.029C8.9525 179.281 10.2631 177.537 15.2061 177.849C31.5019 178.878 44.3922 192.181 44.4955 208.566C44.6804 237.897 44.5386 267.229 44.5415 296.561C44.5416 297.358 44.6355 298.156 44.7012 299.2C56.8813 299.2 68.7983 299.2 81.0403 299.2C81.0403 288.8 81.0403 278.407 81.0403 267.387C78.5832 267.387 76.1375 267.245 73.713 267.412C64.5574 268.041 54.8959 259.173 55.5612 248.093C56.1552 238.2 63.6149 230.249 73.6904 230.227C84.6882 230.204 95.686 230.194 106.684 230.159C106.972 230.158 107.26 229.924 107.742 229.714C107.742 226.509 107.742 223.225 107.742 219.431C96.9999 216.51 94.2523 208.505 94.9507 198.138C95.3866 191.668 95.1189 185.143 94.9968 178.645C94.9323 175.214 96.3122 173.909 99.7661 173.986C107.262 174.155 114.772 174.241 122.261 173.952C126.389 173.793 128.388 175.647 128.372 179.347C128.33 188.891 128.581 198.515 127.371 207.935C126.94 211.287 123.198 215.131 119.957 216.966C116.187 219.102 114.633 221.114 115.488 225.24C115.778 226.64 115.534 228.15 115.534 229.923C128.373 229.923 141.4 229.923 154.842 229.923C156.066 217.143 160.811 205.791 170.113 196.674C179.306 187.665 190.264 182.359 203.071 181.753C203.82 178.069 204.54 174.526 205.361 170.484C209.818 173.155 209.818 173.155 210.545 181.641C223.414 182.602 234.619 187.547 243.91 196.657C253.153 205.721 258.152 216.764 258.99 229.929C272.318 229.929 285.403 229.929 298.741 229.929C298.659 229.286 298.45 228.672 298.528 228.096C299.274 222.533 298.24 218.536 292.205 215.849C287.781 213.88 285.987 208.808 285.998 203.646C286.015 195.48 286.075 187.313 285.968 179.148C285.921 175.637 287.146 173.923 290.901 173.992C298.731 174.136 306.568 174.134 314.398 173.986C317.95 173.919 319.053 175.487 318.998 178.818C318.871 186.649 318.962 194.483 318.955 202.316C318.948 211.447 315.223 216.543 306.265 219.454C306.265 222.808 306.265 226.24 306.265 230.221C317.499 230.221 328.624 230.622 339.705 230.092C348.378 229.677 358.785 238.176 358.419 246.87C357.863 260.062 351.482 267.444 339.573 267.389C337.441 267.379 335.309 267.388 332.907 267.388C332.907 278.174 332.907 288.57 332.907 299.217C345 299.217 356.916 299.217 369.194 299.217C369.295 297.711 369.476 296.273 369.475 294.836C369.449 265.338 368.654 235.816 369.644 206.354C370.22 189.228 385.82 176.739 401.578 178.153C402.82 178.264 404.747 180.926 404.799 182.456C405.105 191.445 404.947 200.45 404.947 209.45C404.946 243.114 404.731 276.781 405.064 310.443C405.18 322.137 400.722 330.152 389.949 334.502C389.949 358.285 389.949 381.898 389.949 405.533C397.549 405.973 404.953 406.401 412.678 406.415C413 408.331 413 410.661 413 412.993C275.667 412.994 138.333 412.994 1 412.992C1 410.991 1 408.993 1 406.498ZM164.59 369.5C164.59 381.562 164.59 393.624 164.59 405.591C193.323 405.591 221.334 405.591 249.48 405.591C249.48 393.547 249.48 381.902 249.48 370.257C249.48 358.525 249.48 346.793 249.48 334.938C247.116 334.938 245.627 334.958 244.139 334.935C238.812 334.853 237.454 333.045 238.691 327.735C238.876 326.939 239.016 326.129 239.122 325.318C240.92 311.581 255.069 299.11 269.128 299.416C277.732 299.604 286.343 299.451 295.135 299.451C295.135 288.563 295.135 278.169 295.135 267.736C236.183 267.736 177.526 267.736 118.948 267.736C118.948 278.487 118.948 288.88 118.948 299.47C127.3 299.47 135.292 299.726 143.261 299.417C160.012 298.766 174.001 311.901 175.78 329.492C176.121 332.864 174.602 334.925 170.966 334.942C168.858 334.952 166.751 334.944 164.59 334.944C164.59 346.546 164.59 357.523 164.59 369.5ZM299.5 260.081C312.497 260.08 325.493 260.097 338.49 260.071C346.186 260.055 351.129 255.482 351.046 248.536C350.965 241.779 346.242 237.723 338.465 237.723C251.154 237.723 163.842 237.723 76.5302 237.721C75.364 237.721 74.1947 237.642 73.0321 237.702C67.788 237.975 63.1121 242.811 62.9577 248.082C62.7446 255.351 67.6686 260.074 75.5552 260.075C149.87 260.084 224.185 260.081 299.5 260.081ZM310.495 267.383C308.065 267.383 305.634 267.383 303.192 267.383C303.192 313.778 303.192 359.622 303.192 405.385C310.627 405.385 317.706 405.385 324.818 405.385C324.818 359.246 324.818 313.396 324.818 267.383C320.144 267.383 315.819 267.383 310.495 267.383ZM88.8341 390.499C88.8341 395.46 88.8341 400.421 88.8341 405.516C96.436 405.516 103.543 405.516 110.899 405.516C110.899 359.465 110.899 313.582 110.899 267.544C103.542 267.544 96.4393 267.544 88.8341 267.544C88.8341 308.303 88.8341 348.901 88.8341 390.499ZM166.99 213.662C165.215 218.985 163.44 224.307 161.468 230.221C164.116 230.221 165.601 230.222 167.087 230.222C195.231 230.222 223.376 230.221 251.539 230.221C249.861 207.261 232.547 192.808 214.575 189.39C197.046 186.055 176.652 194.917 166.99 213.662ZM50.1375 346.525C50.1375 366.267 50.1375 386.008 50.1375 405.658C61.0082 405.658 71.0874 405.658 81.034 405.658C81.034 381.94 81.034 358.557 81.034 335.283C70.6014 335.283 60.5351 335.283 50.1375 335.283C50.1375 338.928 50.1375 342.231 50.1375 346.525ZM360.228 405.99C363.614 406.522 363.917 404.611 363.906 401.855C363.82 380.525 363.865 359.195 363.84 337.864C363.839 336.938 363.556 336.013 363.43 335.243C353.017 335.243 342.916 335.243 332.978 335.243C332.978 358.943 332.978 382.337 332.978 405.99C341.985 405.99 350.627 405.99 360.228 405.99ZM122.546 334.933C121.277 335.029 120.007 335.125 118.915 335.207C118.915 358.969 118.915 382.34 118.915 405.647C125.348 405.647 131.402 405.647 137.379 405.647C137.379 381.93 137.379 358.563 137.379 334.933C132.499 334.933 128.016 334.933 122.546 334.933ZM276.221 396.421C276.221 399.511 276.221 402.601 276.221 405.617C283.124 405.617 289.167 405.617 295.123 405.617C295.123 381.902 295.123 358.565 295.123 335.109C288.846 335.109 282.911 335.109 276.221 335.109C276.221 355.33 276.221 375.384 276.221 396.421ZM150.581 406.005C152.678 406.005 154.776 406.005 156.837 406.005C156.837 382.028 156.837 358.637 156.837 335.231C152.868 335.231 149.142 335.231 145.403 335.231C145.403 358.914 145.403 382.285 145.403 406.005C147.019 406.005 148.323 406.005 150.581 406.005ZM257.016 366.5C257.016 376.31 257.016 386.12 257.016 395.931C257.016 406.72 257.016 406.723 267.886 405.831C268.154 405.809 268.395 405.464 268.563 405.335C268.563 381.91 268.563 358.56 268.563 335.263C264.489 335.263 260.766 335.263 257.016 335.263C257.016 345.57 257.016 355.535 257.016 366.5ZM43.0011 401.37C43.0011 379.302 43.0011 357.234 43.0011 335.274C38.8521 335.274 35.2889 335.274 31.9337 335.274C31.9337 358.978 31.9337 382.35 31.9337 405.987C34.6868 405.987 37.1855 405.773 39.6316 406.041C42.7034 406.376 43.3911 404.948 43.0011 401.37ZM382.084 343.524C382.084 340.756 382.084 337.989 382.084 335.144C378.24 335.144 374.824 335.144 371.332 335.144C371.332 358.853 371.332 382.359 371.332 405.67C375.083 405.67 378.494 405.67 382.084 405.67C382.084 385.077 382.084 364.799 382.084 343.524Z" fill="#F8F8F8"/>
<path d="M209.571 1C210 17.635 210 34.27 210 49.6165C217.446 53.0355 224.466 55.4496 230.619 59.2613C241.656 66.098 245.979 77.325 247.55 89.6059C247.889 92.2633 246.734 95.8557 242.381 95.2086C234.825 94.0853 229.521 95.402 226.003 103.762C222.341 112.465 213.646 115.509 204.465 114.489C195.678 113.513 189.011 108.59 185.784 100.17C184.309 96.3202 182.452 94.8932 178.277 95.0859C166.447 95.632 165.154 96.1184 168.17 82.2171C171.658 66.1349 182.204 56.5769 197.889 52.4024C199.678 51.9263 201.496 51.5569 203.98 50.9801C203.98 34.7824 203.98 18.3609 203.99 1.46972C205.714 1 207.429 1 209.571 1ZM220.348 99.6129C220.926 98.3332 221.505 97.0535 222.236 95.4348C211.873 95.4348 202.068 95.4348 191.932 95.4348C193.876 102.432 198.768 105.948 204.957 106.996C211.033 108.024 216.168 105.243 220.348 99.6129Z" fill="#FBFBFB"/>
</g>
<defs>
<clipPath id="clip0_363_39">
<rect width="412" height="412" fill="white"/>
</clipPath>
</defs>
</svg>
