<svg width="264" height="257" viewBox="0 0 264 257" fill="none" xmlns="http://www.w3.org/2000/svg">
<g clip-path="url(#clip0_632_23)">
<path d="M4.37854 253.568C9.25463 253.257 14.1307 253.257 19.2661 253.257C19.2661 246.76 19.2661 240.549 19.2661 234.339C19.2661 226.542 19.2177 218.745 19.3056 210.949C19.3239 209.318 18.974 208.378 17.3211 207.637C11.9539 205.232 9.51368 201.006 9.52195 195.259C9.56054 168.437 9.57719 141.616 9.48455 114.795C9.47432 111.833 10.3141 110.745 13.4815 110.94C23.9235 111.582 32.1833 119.88 32.2495 130.101C32.3679 148.397 32.2771 166.694 32.2789 184.991C32.279 185.488 32.3392 185.985 32.3812 186.637C40.186 186.637 47.8221 186.637 55.6665 186.637C55.6665 180.149 55.6665 173.666 55.6665 166.792C54.092 166.792 52.5249 166.704 50.9713 166.808C45.1046 167.2 38.9138 161.668 39.3401 154.757C39.7207 148.586 44.5007 143.626 50.9568 143.612C58.004 143.598 65.0511 143.592 72.0982 143.57C72.283 143.569 72.4674 143.423 72.7763 143.293C72.7763 141.293 72.7763 139.244 72.7763 136.878C65.893 135.056 64.1324 130.062 64.58 123.596C64.8593 119.56 64.6877 115.489 64.6095 111.436C64.5682 109.296 65.4524 108.482 67.6655 108.53C72.4686 108.635 77.281 108.689 82.0794 108.509C84.7246 108.409 86.006 109.566 85.9955 111.874C85.9686 117.828 86.1293 123.831 85.3541 129.707C85.0781 131.798 82.6802 134.196 80.6035 135.341C78.1875 136.673 77.1921 137.928 77.7398 140.501C77.9256 141.375 77.7692 142.317 77.7692 143.422C85.9963 143.422 94.3433 143.422 102.957 143.422C103.741 135.451 106.782 128.369 112.742 122.683C118.633 117.063 125.655 113.753 133.861 113.375C134.341 111.077 134.802 108.867 135.328 106.346C138.184 108.012 138.184 108.012 138.65 113.305C146.896 113.905 154.076 116.989 160.029 122.672C165.953 128.326 169.156 135.214 169.692 143.426C178.233 143.426 186.617 143.426 195.164 143.426C195.112 143.025 194.978 142.642 195.027 142.283C195.505 138.813 194.843 136.32 190.976 134.644C188.141 133.415 186.992 130.252 186.999 127.032C187.01 121.938 187.048 116.843 186.979 111.75C186.95 109.56 187.734 108.491 190.14 108.534C195.158 108.624 200.179 108.623 205.197 108.53C207.473 108.488 208.179 109.466 208.144 111.544C208.063 116.429 208.121 121.316 208.117 126.202C208.112 131.898 205.725 135.076 199.985 136.892C199.985 138.984 199.985 141.125 199.985 143.608C207.183 143.608 214.312 143.859 221.413 143.528C226.97 143.269 233.639 148.571 233.404 153.994C233.048 162.223 228.96 166.828 221.328 166.794C219.962 166.787 218.596 166.793 217.057 166.793C217.057 173.521 217.057 180.006 217.057 186.647C224.806 186.647 232.441 186.647 240.309 186.647C240.374 185.708 240.49 184.811 240.489 183.914C240.472 165.514 239.962 147.099 240.597 128.72C240.966 118.038 250.962 110.247 261.059 111.129C261.856 111.199 263.09 112.859 263.124 113.814C263.319 119.421 263.218 125.038 263.218 130.652C263.218 151.651 263.08 172.652 263.293 193.65C263.368 200.944 260.511 205.944 253.608 208.658C253.608 223.493 253.608 238.223 253.608 252.966C258.478 253.24 263.222 253.507 268.173 253.516C268.379 254.711 268.379 256.165 268.379 257.619C180.379 257.62 92.3785 257.62 4.37854 257.618C4.37854 256.371 4.37854 255.124 4.37854 253.568ZM109.203 230.489C109.203 238.013 109.203 245.537 109.203 253.002C127.615 253.002 145.564 253.002 163.599 253.002C163.599 245.489 163.599 238.225 163.599 230.961C163.599 223.643 163.599 216.324 163.599 208.93C162.084 208.93 161.13 208.942 160.176 208.928C156.763 208.877 155.893 207.749 156.685 204.437C156.804 203.94 156.893 203.435 156.961 202.929C158.113 194.36 167.18 186.581 176.189 186.772C181.702 186.889 187.22 186.793 192.853 186.793C192.853 180.002 192.853 173.518 192.853 167.01C155.078 167.01 117.492 167.01 79.9567 167.01C79.9567 173.716 79.9567 180.199 79.9567 186.805C85.3087 186.805 90.4295 186.965 95.5362 186.772C106.27 186.366 115.234 194.56 116.373 205.533C116.592 207.636 115.618 208.922 113.289 208.932C111.938 208.939 110.588 208.933 109.203 208.933C109.203 216.17 109.203 223.018 109.203 230.489ZM195.65 162.235C203.978 162.234 212.306 162.245 220.634 162.229C225.566 162.219 228.733 159.366 228.68 155.034C228.628 150.818 225.602 148.288 220.618 148.288C164.671 148.289 108.724 148.288 52.7765 148.287C52.0293 148.287 51.28 148.238 50.535 148.275C47.1748 148.445 44.1786 151.462 44.0796 154.75C43.9431 159.284 47.0982 162.23 52.1518 162.231C99.7711 162.237 147.39 162.235 195.65 162.235ZM202.696 166.79C201.138 166.79 199.581 166.79 198.016 166.79C198.016 195.73 198.016 224.327 198.016 252.874C202.78 252.874 207.316 252.874 211.874 252.874C211.874 224.093 211.874 195.492 211.874 166.79C208.878 166.79 206.107 166.79 202.696 166.79ZM60.6606 243.588C60.6606 246.683 60.6606 249.777 60.6606 252.955C65.5317 252.955 70.0857 252.955 74.7994 252.955C74.7994 224.229 74.7994 195.608 74.7994 166.89C70.0854 166.89 65.5338 166.89 60.6606 166.89C60.6606 192.315 60.6606 217.639 60.6606 243.588ZM110.741 133.279C109.604 136.599 108.466 139.92 107.202 143.609C108.899 143.609 109.851 143.609 110.803 143.609C128.838 143.609 146.872 143.609 164.918 143.609C163.843 129.286 152.749 120.271 141.233 118.139C130 116.059 116.932 121.587 110.741 133.279ZM35.8647 216.157C35.8647 228.472 35.8647 240.787 35.8647 253.044C42.8304 253.044 49.2889 253.044 55.6625 253.044C55.6625 238.249 55.6625 223.663 55.6625 209.145C48.9775 209.145 42.5272 209.145 35.8647 209.145C35.8647 211.418 35.8647 213.479 35.8647 216.157ZM234.563 253.251C236.733 253.583 236.927 252.391 236.92 250.671C236.865 237.366 236.894 224.061 236.878 210.755C236.878 210.177 236.696 209.6 236.615 209.12C229.943 209.12 223.471 209.12 217.103 209.12C217.103 223.904 217.103 238.497 217.103 253.251C222.874 253.251 228.412 253.251 234.563 253.251ZM82.2626 208.927C81.4489 208.986 80.6353 209.046 79.936 209.097C79.936 223.92 79.936 238.498 79.936 253.037C84.0578 253.037 87.9368 253.037 91.7673 253.037C91.7673 238.242 91.7673 223.666 91.7673 208.927C88.6402 208.927 85.7672 208.927 82.2626 208.927ZM180.734 247.282C180.734 249.209 180.734 251.137 180.734 253.018C185.157 253.018 189.029 253.018 192.846 253.018C192.846 238.225 192.846 223.668 192.846 209.036C188.823 209.036 185.02 209.036 180.734 209.036C180.734 221.65 180.734 234.16 180.734 247.282ZM100.227 253.26C101.571 253.26 102.914 253.26 104.236 253.26C104.236 238.304 104.236 223.713 104.236 209.113C101.692 209.113 99.3047 209.113 96.9083 209.113C96.9083 223.885 96.9083 238.464 96.9083 253.26C97.944 253.26 98.7798 253.26 100.227 253.26ZM168.427 228.618C168.427 234.737 168.427 240.857 168.427 246.976C168.427 253.706 168.428 253.708 175.393 253.152C175.564 253.138 175.719 252.923 175.826 252.843C175.826 238.23 175.826 223.664 175.826 209.133C173.216 209.133 170.831 209.133 168.427 209.133C168.427 215.562 168.427 221.778 168.427 228.618ZM31.2919 250.369C31.2919 236.603 31.2919 222.837 31.2919 209.139C28.6333 209.139 26.3501 209.139 24.2001 209.139C24.2001 223.926 24.2001 238.504 24.2001 253.249C25.9643 253.249 27.5654 253.116 29.1328 253.282C31.1011 253.492 31.5417 252.601 31.2919 250.369ZM248.568 214.286C248.568 212.559 248.568 210.833 248.568 209.058C246.105 209.058 243.916 209.058 241.679 209.058C241.679 223.848 241.679 238.51 241.679 253.052C244.082 253.052 246.268 253.052 248.568 253.052C248.568 240.205 248.568 227.556 248.568 214.286Z" fill="black"/>
<path d="M138.026 0.624023C138.301 11.0007 138.301 21.3774 138.301 30.9503C143.072 33.0831 147.57 34.5889 151.513 36.9667C158.586 41.2313 161.356 48.2345 162.362 55.8952C162.58 57.5528 161.839 59.7937 159.05 59.39C154.208 58.6894 150.81 59.5107 148.555 64.7253C146.209 70.1545 140.637 72.053 134.754 71.417C129.124 70.8084 124.851 67.7371 122.784 62.4848C121.839 60.0835 120.649 59.1933 117.974 59.3135C110.393 59.6541 109.565 59.9576 111.497 51.2861C113.732 41.2543 120.49 35.2921 130.541 32.6881C131.687 32.3911 132.852 32.1607 134.443 31.8009C134.443 21.697 134.443 11.4535 134.45 0.917026C135.555 0.624023 136.653 0.624023 138.026 0.624023ZM144.932 62.1374C145.302 61.3391 145.673 60.5409 146.142 59.5312C139.501 59.5312 133.218 59.5312 126.723 59.5312C127.969 63.8957 131.104 66.0891 135.069 66.7426C138.963 67.3842 142.253 65.6494 144.932 62.1374Z" fill="black"/>
</g>
<defs>
<clipPath id="clip0_632_23">
<rect width="264" height="257" fill="white"/>
</clipPath>
</defs>
</svg>
